<?xml version="1.0" encoding="utf-8"?>
<!DOCTYPE svg PUBLIC "-//W3C//DTD SVG 1.1//EN" "http://www.w3.org/Graphics/SVG/1.1/DTD/svg11.dtd">
<svg version="1.1" xmlns="http://www.w3.org/2000/svg" xmlns:xlink="http://www.w3.org/1999/xlink" x="0px" y="0px"
     viewBox="0 0 1000 1000" enable-background="new 0 0 1000 1000" xml:space="preserve">

<g><g transform="translate(0.000000,512.000000) scale(0.100000,-0.100000)"><path d="M4713.3,5014.1c-1202-153.4-2116.5-972-2331.2-2093.5c-40.3-203.2-44.1-596.2-9.6-837.8c164.9-1156,964.3-2881.4,2212.4-4777.5c285.7-433.3,333.6-483.1,452.5-456.3c78.6,17.3,118.8,61.3,287.6,312.5C6444.4-1162.9,7249.6,460.9,7539.1,1622.7c63.3,253.1,82.4,377.7,107.3,644.2c118.9,1284.5-797.5,2450.1-2129.9,2710.8C5361.2,5008.3,4851.3,5031.3,4713.3,5014.1z M5447.5,4573.1c561.7-107.4,1096.6-444.8,1414.8-895.3c393-556,477.4-1167.5,276.1-1976.6c-214.7-853.1-720.8-1961.2-1481.9-3241.8c-264.6-442.9-636.5-1025.7-655.7-1025.7c-34.5,0-669.1,1031.4-1014.2,1648.7C3775.8-539.8,3394.3,227,3260.1,549.1c-494.6,1173.3-615.4,1957.4-398.8,2590c274.2,807.1,1044.8,1388,1947.8,1472.3C4947.2,4623,5284.6,4603.8,5447.5,4573.1z"/><path
  d="M4843.6,3376.9c-406.4-72.8-728.5-364.3-830.1-749.6c-55.6-209-26.8-523.4,65.2-703.6c118.9-232,337.4-427.5,577.1-515.7c193.6-70.9,481.2-74.8,669.1-7.7c299.1,105.4,531,333.6,638.4,628.8c28.8,74.8,44.1,172.5,49.8,302.9c7.7,168.7,1.9,209-42.2,341.3c-84.3,249.2-209,412.2-421.8,552.1C5355.5,3353.9,5060.3,3417.1,4843.6,3376.9z M5265.4,2918.7c124.6-63.3,226.2-166.8,285.7-285.6c72.8-147.6,74.8-364.3,7.7-515.7c-111.2-249.2-404.5-404.5-667.2-350.8c-540.6,109.3-682.5,801.3-228.1,1108.1c126.5,84.4,186,99.7,366.2,92C5142.7,2962.8,5204,2951.3,5265.4,2918.7z"/><path
  d="M2984-1998.7c-649.9-283.7-1048.7-740-1050.6-1200.1c0-406.4,302.9-803.3,843.5-1108.1c360.4-201.3,950.9-371.9,1552.9-448.6c262.7-32.6,1077.4-32.6,1342,0c952.8,118.9,1662.1,410.3,2080.1,849.3c417.9,440.9,419.9,964.3,3.8,1409.1c-224.3,239.6-724.7,538.7-937.5,559.8c-80.5,7.7-95.9,1.9-149.5-49.8c-46-47.9-57.5-74.8-57.5-141.9c0-49.8,13.4-97.8,34.5-122.7c17.3-23,139.9-92,272.2-157.2c492.7-235.8,736.2-502.3,736.2-801.3c0-623.1-1230.8-1163.7-2653.3-1163.7C3369.4-4374,2069.6-3682,2397.4-2988c103.5,222.4,310.6,396.9,697.8,588.6c268.4,132.3,295.2,159.1,295.2,285.6c0,49.9-15.3,84.4-55.6,124.6C3258.2-1914.4,3171.9-1916.3,2984-1998.7z"/></g></g>
</svg>
