<?xml version="1.0" encoding="utf-8"?>
<!DOCTYPE svg PUBLIC "-//W3C//DTD SVG 1.1//EN" "http://www.w3.org/Graphics/SVG/1.1/DTD/svg11.dtd">
<svg version="1.1" xmlns="http://www.w3.org/2000/svg" xmlns:xlink="http://www.w3.org/1999/xlink" x="0px" y="0px"
     viewBox="0 0 1000 1000" enable-background="new 0 0 1000 1000" xml:space="preserve">
  <g><path d="M500.1,990c-8.4-13.5-16.1-25.7-23.7-38.1C395.3,819,313.9,686.3,233,553.2c-22.6-37.1-42.4-75.8-56.5-117.1c-10.8-31.5-14.5-63.8-14.6-97c-0.1-58.6,15-113.1,43.8-163.6c44.6-78.3,112-127.8,198.2-152.4c49.2-14,99.3-17,149.5-7.9C672,36.8,756.6,102.1,805.5,212.9c12.9,29.3,23.6,59.4,31.3,90.4c0.6,2.6,1.2,5.2,1.1,7.8c-0.6,25.6,0,51.3-2.5,76.7c-3,30.1-14.1,58.1-26.7,85.5c-19.6,42.6-44.8,82-69.6,121.6c-21.1,33.9-41.6,68.1-62.4,102.2c-1.3,2.1-2.3,4.3-3.9,6.1c-27.7,32.3-46,70.5-67.3,106.7c-33.9,57.6-67.3,115.4-101,173.2C503.5,985.1,502.2,986.8,500.1,990L500.1,990z M625.6,338.7c0-70.2-54.7-126.2-123.3-125.3c-71.6,1-129.7,46.2-129.3,128.8c0.3,78.4,69.2,121.4,126.4,122C568.6,464.9,625.6,407.7,625.6,338.7L625.6,338.7z"/></g>
</svg>
