<?xml version="1.0" standalone="no"?>
<!DOCTYPE svg PUBLIC "-//W3C//DTD SVG 20010904//EN"
 "http://www.w3.org/TR/2001/REC-SVG-20010904/DTD/svg10.dtd">
<svg version="1.0" xmlns="http://www.w3.org/2000/svg"
 width="72.000000pt" height="72.000000pt" viewBox="0 0 72.000000 72.000000"
 preserveAspectRatio="xMidYMid meet">
<metadata>
Created by potrace 1.14, written by Peter Selinger 2001-2017
</metadata>
<g transform="translate(0.000000,72.000000) scale(0.100000,-0.100000)"
fill="#000000" stroke="none">
<path d="M290 686 c-112 -24 -194 -89 -244 -196 -26 -56 -30 -76 -29 -145 1
-87 20 -147 70 -211 29 -38 113 -101 113 -85 0 17 46 61 64 61 9 0 29 6 44 13
15 7 46 13 69 12 34 -1 48 -8 77 -40 20 -21 36 -44 36 -51 0 -21 12 -17 62 18
107 77 160 187 151 313 -8 111 -80 223 -181 278 -42 23 -69 30 -157 42 -11 1
-45 -3 -75 -9z m-17 -215 c13 -5 37 -21 55 -36 24 -20 32 -35 32 -61 0 -41
-10 -43 -32 -6 -9 15 -27 36 -39 47 -20 18 -20 16 3 -15 15 -19 35 -60 46 -90
21 -60 29 -170 12 -170 -8 0 -16 92 -11 124 5 25 -12 45 -38 44 -15 -1 -33 2
-40 6 -20 13 -51 84 -58 132 -6 47 -6 47 20 40 14 -3 37 -10 50 -15z m247 -89
c0 -5 -14 -28 -31 -52 -27 -37 -34 -41 -62 -37 -23 3 -36 -1 -49 -17 -9 -12
-17 -16 -18 -10 0 6 6 17 14 23 8 7 12 20 9 31 -3 12 5 28 21 44 19 20 35 26
71 26 25 0 45 -4 45 -8z"/>
<path d="M413 334 l-28 -26 33 22 c29 20 39 30 28 30 -3 0 -18 -12 -33 -26z"/>
</g>
</svg>
